# xmcd
#
# Track frame offsets:
#	150
#	15479
#	25097
#	41618
#	57444
#	67536
#	82949
#	97154
#	112344
#	127889
#	139559
#	155208
#	172436
#	189311
#	206883
#
# Disc length: 2988
#
# Revision: 1
# Processed by: cddbd v1.5.1PL0 Copyright (c) Steve Scherf et al.
# Submitted via: VisiTrax 2.9.5.180 - For more info visit www.synapsa.com
# Normalized: r0:DSETVAR1
#
DISCID=d00baa0f
DTITLE=Various Artist - CDX 255 December 2000
DYEAR=2000
DGENRE=
TTITLE0=Billy Ray Cyrus - Burn down the trailer park
TTITLE1=George Strait - Don't make me come over there and love you
TTITLE2=Faith Hill - If my heart had wings
TTITLE3=Martina McBride - It's my turn
TTITLE4=Merle Haggard - Leavin's getting harder
TTITLE5=Aaron Tippin - People like us
TTITLE6=John Michael Montgomery - That's what I like about you
TTITLE7=Patty Loveless - The last thing on my mind
TTITLE8=Eddy Arnold - To life
TTITLE9=Wendy Manley - Cousin blue
TTITLE10=Paula Hernandez - Crazy in love
TTITLE11=Billy Hoffman - I go crazy
TTITLE12=Pat Garret - In the blue mountains
TTITLE13=Lydia Miller - Out of loneliness
TTITLE14=Sabina - Terms of my surrender
EXTD=
EXTT0=
EXTT1=
EXTT2=
EXTT3=
EXTT4=
EXTT5=
EXTT6=
EXTT7=
EXTT8=
EXTT9=
EXTT10=
EXTT11=
EXTT12=
EXTT13=
EXTT14=
PLAYORDER=
